<?xml version="1.0" encoding="utf-8"?>
<svg xmlns="http://www.w3.org/2000/svg" xmlns:xlink="http://www.w3.org/1999/xlink" version= "1.1" width="1073px" height="767px" viewBox="-177 328 1073 767">
<g id="layer1">
<g style="fill:rgb(255,201,77); fill-opacity:1.0; stroke-linejoin: miter">
<path d="M-177.00099,326.7555C-177.33076,326.7555,-177.64703,326.8865,-177.88022,327.1197C-178.1134,327.35287,-178.2444,327.66913,-178.2444,327.9989L-178.2434,1094.9998C-178.2434,1095.6865,-177.68669,1096.2432,-176.99998,1096.2432L896.0009,1096.2441C896.3307,1096.2441,896.647,1096.1133,896.8801,1095.8801C897.1133,1095.647,897.2443,1095.3306,897.2443,1095.0007L897.24335,327.9999C897.24335,327.3132,896.68665,326.7565,895.99994,326.7565L-177.00099,326.7555 Z"/>
</g>
<g style="fill:rgb(68,197,229); fill-opacity:1.0; stroke-linejoin: miter">
<path d="M126.081635,576.2275C126.06802,576.2275,126.0544,576.22815,126.040985,576.22894L126.04018,576.2293C117.60133,576.2486,111.14137,582.7617,111.14006,591.2052L111.08746,893.0625C111.086,901.5197,117.56682,908.00116,126.022644,908.0219L126.02411,908.0228L641.6633,908.0939L641.6633,908.0943C650.12024,908.09534,656.6036,901.6151,656.60486,893.1578L656.65735,591.29895C656.65875,582.8548,650.2001,576.3382,641.75775,576.33636L641.73444,576.3368C641.73114,576.33636,641.7261,576.33636,641.71875,576.33636L126.081635,576.2275 Z"/>
</g>
<g style="fill:rgb(201,214,222); fill-opacity:1.0; stroke-linejoin: miter">
<path d="M177.00693,627.00446L323.2061,627.00494L469.40524,627.00543Q469.40524,746.7566,469.40524,866.5078Q323.2061,866.5083,177.00693,866.5088Q177.00693,746.7566,177.00693,627.00446"/>
</g>
<g style="fill:rgb(227,237,242); fill-opacity:1.0; stroke-linejoin: miter">
<path d="M185.08205,651.8074L323.38858,651.80786L461.69513,651.80835Q461.69513,754.6421,461.69513,857.4758Q323.38858,857.4763,185.08205,857.4768Q185.08205,754.6421,185.08205,651.8074"/>
</g>
<g style="fill:rgb(0,0,0); fill-opacity:0.25490198; stroke-linejoin: miter">
<path d="M760.2402,967.40125L756.8587,968.1704Q746.1745,969.2025,717.19934,970.0477Q702.7117,970.4696,683.65094,970.8458Q676.9788,971.06287,616.18066,971.86694Q563.98267,972.47815,503.54645,972.75916Q473.32785,972.9004,441.04977,972.9586Q426.1981,973.0394,339.58145,972.94885Q257.8255,972.6687,245.0787,972.5293Q215.83038,972.3369,189.58601,972.0757Q137.097,971.55273,96.62283,970.7516Q6.258091,968.8142,21.570961,966.7455Q28.301373,965.71497,54.89212,964.8479Q68.18753,964.4148,86.447975,964.02246Q92.769295,963.79626,151.81235,962.9457Q249.93701,961.69165,389.8439,961.6625Q459.7975,961.7019,519.3053,962.04346Q549.0592,962.21436,576.2019,962.46106Q641.77344,963.14307,651.7542,963.37Q698.2051,964.08984,724.796,964.96606Q738.091,965.40405,746.4207,965.8812Q762.90204,967.10864,760.2402,967.40125"/>
</g>
<g style="fill:rgb(0,0,0); fill-opacity:1.0; stroke-linejoin: miter">
<path d="M126.08479,557.63293C107.656784,557.62976,92.54693,572.7725,92.54376,591.2007L92.49138,893.0592C92.48808,911.48663,107.592834,926.59705,126.020905,926.5999L641.6599,926.7094C660.08795,926.69415,675.1982,911.5886,675.2015,893.1613L675.2536,591.3034C675.25684,572.8751,660.1524,557.72687,641.7241,557.72363L126.08479,557.65265 Z M126.081436,576.8377L641.7208,576.94635C649.8411,576.9289,656.049,583.17615,656.0476,591.29895L655.995,893.1578C655.99384,901.27795,649.7836,907.4852,641.6633,907.48376L126.0242,907.41205C117.90396,907.39185,111.696045,901.18225,111.69739,893.0624L111.74979,591.2052C111.75119,583.0824,117.96117,576.83746,126.081436,576.8386 Z"/>
</g>
<g style="fill:rgb(0,0,0); fill-opacity:1.0; stroke-linejoin: miter">
<path d="M335.87228,939.8639L431.80356,939.8998C433.2836,939.8812,434.4752,941.07227,434.4749,942.5542C434.47458,944.03394,433.28268,945.22595,431.80273,945.22546L335.8713,945.228C334.39108,945.2084,333.19977,944.0172,333.19995,942.53625C333.2002,941.05664,334.39194,939.8634,335.87228,939.8639 Z"/>
</g>
<g style="fill:rgb(215,237,249); fill-opacity:1.0; stroke-linejoin: miter">
<path d="M449.7304,1008.69946L449.7304,1008.6996L449.7304,1008.70044L449.7304,1008.69946"/>
</g>
<g style="fill:rgb(0,0,0); fill-opacity:1.0; stroke-linejoin: miter">
<path d="M61.76702,932.13275C61.763535,952.4054,75.75976,968.73486,93.142944,968.73816L674.5236,968.85913C691.9062,968.8434,705.9085,952.5204,705.912,932.246L61.766792,932.1518 Z"/>
</g>
<g style="fill:rgb(0,0,0); fill-opacity:1.0; stroke-linejoin: miter">
<path d="M444.1672,949.75684L444.1672,949.7571L444.1672,949.7572L444.1672,949.75684"/>
</g>
<g style="fill:rgb(34,43,50); fill-opacity:0.99607843; stroke-linejoin: miter">
<path d="M309.49802,746.13336L309.4981,746.134L309.4981,746.1337L309.4981,746.13336L309.49802,746.134L309.4981,746.13336L309.4981,746.1337Q309.4981,746.13336,309.49802,746.13336 Z"/>
</g>
<g style="fill:rgb(34,43,50); fill-opacity:0.99607843; stroke-linejoin: miter">
<path d="M309.49802,746.13336L309.4981,746.134L309.4981,746.1337L309.4981,746.13336L309.49802,746.134L309.4981,746.13336L309.4981,746.1337Q309.4981,746.13336,309.49802,746.13336 Z"/>
</g>
<g style="fill:rgb(34,43,50); fill-opacity:0.99607843; stroke-linejoin: miter">
<path d="M309.49802,746.13336L309.4981,746.134L309.4981,746.1337L309.4981,746.13336L309.49802,746.134L309.4981,746.13336L309.4981,746.1337Q309.4981,746.13336,309.49802,746.13336 Z"/>
</g>
<g style="fill:rgb(34,43,50); fill-opacity:0.99607843; stroke-linejoin: miter">
<path d="M309.49802,746.13336L309.4981,746.134L309.4981,746.1337L309.4981,746.13336L309.49802,746.134L309.4981,746.13336L309.4981,746.1337Q309.4981,746.13336,309.49802,746.13336 Z"/>
</g>
<g style="fill:rgb(255,255,255); fill-opacity:0.99607843; stroke-linejoin: miter">
<path d="M245.82895,701.2911L378.89694,701.2911L511.9649,701.29126L511.9649,815.1658Q378.89703,815.1661,245.82907,815.1664Q245.82907,758.22876,245.82895,701.2911"/>
</g>
<g style="fill:rgb(55,72,80); fill-opacity:0.99607843; stroke-linejoin: miter">
<path d="M245.79745,683.7281L378.8928,683.7283L511.98804,683.72845Q511.98804,697.1744,511.98804,710.62024Q378.8928,710.6204,245.79745,710.6205Q245.79745,697.1744,245.79745,683.7281"/>
</g>
<g style="fill:rgb(255,0,0); fill-opacity:0.99607843; stroke-linejoin: miter">
<path d="M272.5506,798.60754L272.5506,798.6077Q291.55347,765.353,310.55637,732.09827Q329.55917,765.353,348.56198,798.6074L272.5506,798.6077"/>
</g>
<g style="fill:rgb(255,255,255); fill-opacity:1.0; stroke-linejoin: miter">
<path d="M306.20148,747.67065L308.03754,780.0706L310.7915,780.0706L312.84357,747.6707 Z M309.54956,781.96027Q307.82153,781.96045,307.11948,782.87836Q306.3636,783.85046,306.30957,785.0924Q306.3636,786.3344,307.06555,787.2524Q307.82153,788.1704,309.54956,788.1704Q311.16962,788.1704,311.87158,787.25244Q312.57352,786.3345,312.68158,785.0923Q312.57352,783.8505,311.87158,782.9324Q311.16962,781.96027,309.54956,781.96027 Z"/>
</g>
<g style="fill:rgb(0,0,0); fill-opacity:1.0; stroke-linejoin: miter">
<path d="M391.03024,748.94446Q394.11432,748.94446,395.6204,750.1278Q397.16245,751.34717,397.16245,753.6422Q397.16245,754.8615,396.76804,755.7758Q396.37344,756.67236,395.54865,757.38947Q394.65216,758.1605,393.57635,758.50134Q392.42874,758.85986,390.81503,758.8599L387.48,758.8607L387.48,748.94446 Z M415.59485,748.94446Q418.67896,748.94446,420.18506,750.1278Q421.72723,751.34717,421.72723,753.6422Q421.72723,754.8616,421.3328,755.7759Q420.93823,756.6724,420.11334,757.3895Q419.21692,758.1606,418.141,758.5014Q416.99356,758.8599,415.37973,758.8599L412.0447,758.86066L412.0447,748.9444 Z M467.84433,748.94446Q470.92816,748.9444,472.43442,750.12775Q473.97647,751.3471,473.97647,753.64215Q473.97647,754.8615,473.5819,755.7758Q473.18747,756.67236,472.3628,757.38947Q471.46628,758.1605,470.39035,758.50134Q469.24286,758.8599,467.62924,758.8599L464.29407,758.86066L464.29407,748.9444 Z M442.9568,749.0161Q445.14423,749.01624,446.8477,749.7155Q448.56915,750.4147,449.78827,751.7415Q450.9001,752.96063,451.6173,755.00494Q452.28073,756.9235,452.28073,759.37994L452.3165,759.3807Q452.3165,761.8004,451.65314,763.7191Q450.98965,765.63763,449.78827,766.9465Q448.55115,768.2913,446.8477,768.9904Q445.05466,769.7257,442.99265,769.72565Q440.93063,769.72565,439.13766,768.99036Q437.4343,768.2914,436.19702,766.9465Q434.94196,765.58386,434.29642,763.7191Q433.63293,761.8003,433.63293,759.3799Q433.63293,756.92346,434.29642,755.00494Q434.95984,753.0863,436.19702,751.7415Q437.4164,750.41473,439.13766,749.71545Q440.841,749.0161,442.9568,749.0161 Z M359.7953,746.1652L359.7953,747.7072Q359.7953,748.2988,360.33325,748.40656Q360.65594,748.514,362.4311,748.8368L362.4311,769.8152L360.33325,770.20984Q359.7953,770.31726,359.7953,770.90894L359.7953,772.45105L378.6582,772.4516L378.6582,766.3547L376.90097,766.3552Q376.18384,766.3547,376.09418,766.94635Q376.09418,767.16156,375.87903,769.5821L366.0352,769.58264L366.0352,760.5812L375.71765,760.58185L375.71765,757.80206L366.0352,757.8026L366.0352,749.05194L375.87903,749.0528Q375.93277,749.80505,376.00446,750.50433Q376.07617,751.2037,376.11215,751.5265Q376.13,751.84906,376.13,751.8849Q376.23758,752.5125,376.90097,752.5125L378.6582,752.5133L378.6582,746.1651 Z M381.3118,746.0935L381.3118,747.7072Q381.3118,748.24506,381.84976,748.37054Q382.17255,748.4423,383.98346,748.801L383.98346,769.72577L381.84976,770.174Q381.3118,770.2995,381.3118,770.8372L381.3118,772.4151L390.1516,772.4159L390.1516,770.8372Q390.1516,770.6041,389.9724,770.4069Q389.811,770.2278,389.56003,770.174Q389.27304,770.10236,387.51596,769.72577L387.51596,761.44183L389.8648,761.44244Q390.63574,761.44183,390.95856,761.657Q391.33505,761.9081,391.622,762.28455L398.45346,771.67993Q398.8838,772.451,399.852,772.451L403.67123,772.45166L403.67123,770.8372Q403.67123,770.2995,403.1154,770.174L403.15128,770.1746Q402.97186,770.12006,401.0892,769.8152L395.40524,762.0155Q394.92114,761.3163,394.2219,760.922Q395.54865,760.63513,396.9473,759.8641Q398.13068,759.21844,398.97342,758.1965Q399.81613,757.17426,400.24643,755.9911Q400.6947,754.73584,400.6947,753.4269Q400.6947,751.7415,400.13885,750.3789Q399.6009,749.0699,398.38177,748.06573Q397.18033,747.0797,395.36935,746.5955Q393.46872,746.0935,391.03024,746.0935 Z M405.8767,746.09357L405.8767,747.7073Q405.8767,748.2451,406.41452,748.3706Q406.73734,748.4424,408.54825,748.80096L408.54825,769.7257L406.41452,770.174Q405.8767,770.2995,405.8767,770.8372L405.8767,772.4151L414.71634,772.4159L414.71634,770.8372Q414.71634,770.6041,414.53705,770.4069Q414.37564,770.2278,414.1246,770.174Q413.83774,770.10236,412.0806,769.7257L412.0806,761.4418L414.42947,761.44244Q415.20053,761.44183,415.52313,761.657Q415.89975,761.9081,416.18668,762.28467L423.01813,771.6799Q423.44852,772.451,424.41672,772.451L428.23593,772.4516L428.23593,770.83716Q428.23593,770.29944,427.6801,770.17395L427.71597,770.17456Q427.53665,770.12,425.6539,769.8152L419.97003,762.01556Q419.4859,761.3164,418.78653,760.92206Q420.11334,760.6352,421.51196,759.86414Q422.69537,759.2184,423.53815,758.1965Q424.38083,757.17426,424.81116,755.9911Q425.2594,754.73584,425.2594,753.4268Q425.2594,751.74146,424.70358,750.3789Q424.1658,749.0699,422.94635,748.0657Q421.74512,747.0797,419.93414,746.5955Q418.03348,746.0935,415.59485,746.0935 Z M458.12604,746.0935L458.12604,747.7072Q458.12604,748.24506,458.6639,748.37054Q458.9866,748.44226,460.7976,748.80096L460.7976,769.7257L458.6639,770.17395Q458.12604,770.29944,458.12604,770.83716L458.12604,772.41504L466.9657,772.4159L466.9657,770.8372Q466.9657,770.6041,466.7864,770.4069Q466.625,770.2278,466.37402,770.174Q466.08704,770.10236,464.3299,769.7257L464.3299,761.4418L466.67877,761.44244Q467.44983,761.44183,467.7726,761.657Q468.14905,761.9081,468.43597,762.28467L475.2675,771.6799Q475.69778,772.4509,476.66608,772.451L480.4852,772.4516L480.4852,770.83716Q480.4852,770.29944,479.9294,770.17395L479.96515,770.17456Q479.78595,770.12,477.9032,769.8152L472.21933,762.0155Q471.73526,761.3163,471.0359,760.922Q472.3628,760.63513,473.76132,759.8641Q474.94467,759.21844,475.78738,758.1965Q476.63025,757.1744,477.06052,755.99115Q477.50876,754.7359,477.50876,753.4269Q477.50876,751.7415,476.95294,750.3789Q476.41504,749.0699,475.19565,748.0657Q473.99442,747.07965,472.1835,746.59546Q470.28278,746.09344,467.84433,746.09357 Z M443.02853,745.86035Q440.17758,745.86035,437.73907,746.8646Q435.35434,747.85065,433.63293,749.6438Q431.9117,751.43677,430.97937,753.911Q430.0289,756.40344,430.0289,759.34406Q430.0289,762.2846,430.97937,764.777Q431.9117,767.25116,433.63293,769.0444Q435.28265,770.7835,437.73907,771.78754Q440.23135,772.8096,443.02853,772.8096Q445.82565,772.80963,448.31805,771.7875Q450.7028,770.8012,452.38818,769.0444Q454.1096,767.2511,455.04184,764.777Q455.95636,762.3742,455.95636,759.3799L455.9923,759.3081Q455.9923,756.27795,455.0778,753.8753Q454.1454,751.40076,452.42413,749.60785Q450.7745,747.8686,448.31805,746.86456Q445.8795,745.8604,443.02853,745.86035 Z"/>
</g>
<g style="fill:rgb(255,0,0); fill-opacity:0.99607843; stroke-linejoin: miter">
<path d="M264.0317,699.05383L263.98077,699.8106Q263.6188,702.0979,261.8625,703.4692Q260.0939,704.8395,257.6974,704.5805Q255.41016,704.2185,254.03882,702.46204Q253.59943,701.89435,253.31488,701.2248L253.07587,700.5366Q252.8789,699.8261,252.87668,699.05383Q252.93643,696.6838,254.51025,695.1099Q256.0841,693.5364,258.45416,693.47626Q260.8242,693.5363,262.398,695.1099Q263.97186,696.6838,264.0317,699.05383"/>
</g>
<g style="fill:rgb(145,145,145); fill-opacity:0.99607843; stroke-linejoin: miter">
<path d="M268.50784,697.9478L282.02243,697.9477L295.53726,697.94794Q295.53726,699.80743,295.53726,701.667Q282.02243,701.6672,268.50784,701.6675Q268.50784,699.8075,268.50784,697.9478"/>
</g>
<g style="fill:rgb(55,72,80); fill-opacity:1.0; stroke-linejoin: miter">
<path d="M175.87524,612.25684L323.09802,612.2573L470.32077,612.2578Q470.32077,629.29663,470.32077,646.3354Q323.09802,646.3359,175.87524,646.33636Q175.87524,629.29663,175.87524,612.25684"/>
</g>
<g style="fill:rgb(255,52,52); fill-opacity:1.0; stroke-linejoin: miter">
<path d="M206.87448,628.02075L206.7641,629.6615Q205.97934,634.62,202.17172,637.59283Q198.33774,640.5633,193.14221,640.0019Q188.18375,639.2171,185.21088,635.40955Q184.25835,634.1787,183.64168,632.7273L183.12338,631.23517Q182.69627,629.69507,182.69147,628.02075Q182.82112,622.8826,186.23299,619.47076Q189.64484,616.0589,194.78296,615.92926Q199.92108,616.0589,203.33295,619.47076Q206.74481,622.8826,206.87448,628.02075"/>
</g>
</g>
</svg>